<?xml version="1.0" encoding="UTF-8" standalone="no"?>
<!-- Created with Inkscape (http://www.inkscape.org/) -->

<svg
   width="320"
   height="320"
   viewBox="0 0 84.666665 84.666669"
   version="1.1"
   id="svg5"
   inkscape:version="1.1.1 (c3084ef, 2021-09-22)"
   sodipodi:docname="logo.svg"
   inkscape:export-filename="/Users/Kirthmas/Desktop/logo.ico"
   inkscape:export-xdpi="19.200001"
   inkscape:export-ydpi="19.200001"
   xmlns:inkscape="http://www.inkscape.org/namespaces/inkscape"
   xmlns:sodipodi="http://sodipodi.sourceforge.net/DTD/sodipodi-0.dtd"
   xmlns="http://www.w3.org/2000/svg"
   xmlns:svg="http://www.w3.org/2000/svg">
  <sodipodi:namedview
     id="namedview7"
     pagecolor="#505050"
     bordercolor="#eeeeee"
     borderopacity="1"
     inkscape:pageshadow="0"
     inkscape:pageopacity="0"
     inkscape:pagecheckerboard="0"
     inkscape:document-units="mm"
     showgrid="false"
     units="px"
     inkscape:snap-page="true"
     inkscape:zoom="0.5"
     inkscape:cx="-11"
     inkscape:cy="122"
     inkscape:window-width="1280"
     inkscape:window-height="672"
     inkscape:window-x="0"
     inkscape:window-y="25"
     inkscape:window-maximized="0"
     inkscape:current-layer="layer1" />
  <defs
     id="defs2">
    <inkscape:path-effect
       effect="offset"
       id="path-effect11515"
       is_visible="true"
       lpeversion="1"
       linejoin_type="miter"
       unit="mm"
       offset="2"
       miter_limit="4"
       attempt_force_join="false"
       update_on_knot_move="true" />
    <rect
       x="53"
       y="52"
       width="150"
       height="217"
       id="rect1790" />
  </defs>
  <g
     inkscape:label="Layer 1"
     inkscape:groupmode="layer"
     id="layer1">
    <rect
       style="opacity:1;fill:#2c2c37;stroke:none;stroke-width:7.19201;stroke-linecap:round;stroke-linejoin:round;paint-order:stroke markers fill;stop-color:#000000;fill-opacity:1"
       id="rect846"
       width="84.666664"
       height="84.666664"
       x="0"
       y="0" />
    <text
       xml:space="preserve"
       transform="scale(0.26458333)"
       id="text1788"
       style="font-weight:bold;font-size:192px;line-height:1.2;font-family:HYZhuanShuF;-inkscape-font-specification:'HYZhuanShuF Bold';white-space:pre;shape-inside:url(#rect1790);fill:#c084fc;fill-opacity:1;font-style:normal;font-stretch:normal;font-variant:normal" />
    <g
       aria-label="K"
       id="text7986"
       style="font-weight:bold;font-size:84.3095px;font-family:'Helvetica Neue';-inkscape-font-specification:'Helvetica Neue, Bold';stroke-width:0.238803"
       inkscape:path-effect="#path-effect11515"
       transform="matrix(1.1079515,0,0,1.1079515,-18.588851,-5.8686419)">
      <path
         d="m 66.78125,14.785156 c 0.02088,0.0031 0.03402,0.01614 0.05469,0.01953 0.01186,0.0022 0.01934,-0.0063 0.03125,-0.0039 z m 0.05469,0.01953 c -1.463,-0.276733 -2.567396,0.482989 -3.28711,1.517578 l -0.0039,0.0078 -0.0059,0.0059 C 63.01235,17.108447 62.480543,18.47395 62.056641,20 l -0.002,0.0098 -0.0039,0.01172 c -0.310408,1.175116 -1.013899,2.545225 -2.25,4.19336 -1.243206,1.657608 -2.435372,2.86916 -3.568359,3.695312 -1.265896,0.915754 -2.251639,1.56701 -3.001953,1.992188 l -0.01172,0.0059 -0.0098,0.0078 c -0.593314,0.347804 -1.248453,0.697037 -1.908203,1.046875 l -1.71875,-0.384766 C 48.562707,30.34646 46.213297,30.032583 43.740234,29.710938 v -5.935547 c 0,-2.623067 -0.01342,-4.202044 -0.04297,-4.865235 -0.0017,-0.992059 -0.312036,-1.891743 -0.97461,-2.65625 l -0.02148,-0.02734 -0.02539,-0.02539 c -0.858806,-0.916055 -1.882393,-1.21761 -3.058593,-1.134766 -1.578471,0.0749 -2.588202,1.080389 -2.992188,2.482422 -0.301011,1.021309 -0.404297,2.913079 -0.404297,5.56836 v 42.730468 c 0,1.75024 0.167885,3.317582 0.560547,4.220703 l 0.01367,0.0293 0.01367,0.0293 c 0.623989,1.304707 1.851081,1.970703 3.234375,1.970703 h 0.03125 0.03125 c 1.155265,-0.03984 2.408044,-0.396769 3.0625,-1.683594 0.225293,-0.405441 0.427041,-0.85888 0.527343,-1.273437 0.180226,-0.61775 0.169922,-2.356514 0.169922,-5.474609 V 37.304688 l 0.605469,0.07617 c 1.193288,0.149161 2.395324,0.424744 3.605469,0.828125 l 0.0039,0.002 0.0059,0.002 c 1.20408,0.393169 2.412406,0.949439 3.621093,1.679687 l 0.01953,0.01172 0.01758,0.0098 c 1.223948,0.699399 2.278474,1.488274 3.175781,2.361329 l 0.0098,0.0098 0.0078,0.0078 c 0.955772,0.905468 2.042084,2.139216 3.269531,3.740234 l 0.0039,0.0059 0.0039,0.0059 c 1.217617,1.561727 2.238684,3.069552 3.068359,4.521484 l 0.0059,0.0098 0.0059,0.0098 c 0.813976,1.381291 1.67419,3.476632 2.589844,6.412109 0.919511,2.947845 1.53975,5.390983 1.878906,7.347656 l 0.615234,4.0625 0.0059,0.02539 c 0.187752,1.03264 0.54823,2.118543 1.238281,2.808594 0.631533,0.631532 1.44537,0.989549 2.363281,1.007812 1.164166,0.0735 2.361363,-0.227281 3.070313,-1.472656 0.40334,-0.691837 0.648514,-1.429189 0.693359,-2.236328 l 0.002,-0.04883 v -0.05078 c 0,-0.801262 -0.202843,-2.249914 -0.5625,-4.269531 -0.364658,-2.047699 -0.826953,-4.13197 -1.384765,-6.253906 l -0.0039,-0.0098 c -0.543315,-2.171189 -1.322607,-4.552306 -2.330078,-7.126953 -1.035211,-2.645542 -2.343295,-5.15888 -3.917969,-7.535156 -1.542153,-2.355288 -3.003249,-4.240303 -4.324218,-5.53125 -1.072992,-1.072283 -1.857287,-1.773852 -2.46875,-2.259766 l 0.929687,-0.574219 c 2.340432,-1.380255 4.255149,-3.099082 5.705078,-5.166015 1.356798,-1.922131 2.443059,-3.725568 3.238281,-5.402344 l 0.002,-0.0059 c 0.809456,-1.677992 1.326939,-3.289032 1.367187,-4.621094 0.05792,-1.168817 -0.119664,-2.452215 -0.748047,-3.324219 -0.589557,-0.878193 -1.366263,-1.384304 -2.417968,-1.55664 z m 2.417968,1.55664 c 0.01465,0.02182 0.03636,0.03045 0.05078,0.05273 l -0.07227,-0.103515 c 0.01061,0.01415 0.01113,0.03641 0.02148,0.05078 z m 0.748047,3.324219 c -4.46e-4,0.009 0.0024,0.01836 0.002,0.02734 l 0.002,-0.04687 c -1.61e-4,0.006 -0.0037,0.01354 -0.0039,0.01953 z m 3.054688,51.091797 c -0.0038,0.0066 -0.002,0.01492 -0.0059,0.02148 l 0.01758,-0.03125 c -0.0029,0.0052 -0.0088,0.0046 -0.01172,0.0098 z M 69.986328,72.25 c -0.02463,-0.0016 -0.04767,0.01166 -0.07227,0.0098 l 0.138672,0.0039 c -0.02373,0 -0.04282,-0.0132 -0.06641,-0.01367 z M 43.695312,69.140625 c -0.0039,0.01322 1.36e-4,0.105063 -0.0039,0.117187 l 0.06836,-0.273437 c -0.0082,0.04918 -0.05215,0.105413 -0.06445,0.15625 z m -0.527343,1.273437 c -0.01144,0.0206 -0.01593,0.04417 -0.02734,0.06445 l 0.04102,-0.07813 c -0.0033,0.0067 -0.0103,0.007 -0.01367,0.01367 z M 36.625,17.548828 c 5.25e-4,-0.0018 -5.26e-4,-0.008 0,-0.0098 l -0.0059,0.01758 c 9.56e-4,-0.0033 0.0049,-0.0045 0.0059,-0.0078 z m 2.992188,-2.482422 c 0.0096,-4.57e-4 0.01375,-0.0094 0.02344,-0.0098 l -0.07227,0.0039 c 0.01745,-0.0014 0.03144,0.0071 0.04883,0.0059 z m 4.080078,3.84375 c 4e-6,0.0028 0.002,0.005 0.002,0.0078 l -0.002,-0.08594 c 4.83e-4,0.01015 -4.75e-4,0.06748 0,0.07813 z"
         style="-inkscape-font-specification:'HYZhuanShuF Bold';fill:#c084fc;stroke-width:0.238803"
         id="path11491"
         inkscape:original-d="m 42.059928,35.26064 v 28.405057 q 0,4.775343 -0.08233,5.022344 -0.04117,0.247 -0.411667,0.905668 -0.329334,0.658668 -1.52317,0.699835 -1.152669,0 -1.605503,-0.946836 Q 38.02559,68.399873 38.02559,65.847535 V 23.11645 q 0,-3.952008 0.329334,-5.063511 0.329334,-1.152669 1.358503,-1.193835 1.029169,-0.08233 1.64667,0.576334 0.535168,0.617501 0.535168,1.482003 0.04117,0.864502 0.04117,4.857677 v 7.492348 q 5.434011,0.658668 7.245348,1.070335 l 2.387672,0.535168 q 1.358502,-0.699835 2.552338,-1.399669 1.235003,-0.699835 3.16984,-2.099505 1.976004,-1.440836 3.952008,-4.075508 1.976004,-2.634672 2.552338,-4.816509 0.617501,-2.223005 1.235003,-3.128673 0.658668,-0.946836 1.482003,-0.782169 0.823335,0.123501 1.276169,0.823335 0.494001,0.658668 0.411667,2.223005 -0.04117,1.52317 -1.193835,3.910841 -1.111503,2.346505 -3.087507,5.145844 -1.934837,2.758172 -5.145843,4.651842 l -3.128673,1.934837 q 0.946835,0.741002 1.729003,1.358503 0.782169,0.576335 2.593505,2.387672 1.811337,1.77017 4.075509,5.228177 2.264171,3.41684 3.746174,7.204181 1.482003,3.787341 2.264171,6.916014 0.823335,3.128672 1.358503,6.133845 0.535167,3.005173 0.535167,3.952008 -0.04117,0.741001 -0.452834,1.440836 -0.370501,0.658668 -1.440836,0.576335 -0.658668,0 -1.152669,-0.494001 -0.494001,-0.494001 -0.741001,-1.852504 l -0.61751,-4.075508 Q 67.006978,60.948692 65.607308,56.461516 64.207639,51.97434 62.849136,49.669003 61.5318,47.363665 59.638129,44.934826 57.744459,42.464821 56.180123,40.982819 54.656953,39.500816 52.639782,38.348147 50.663778,37.154311 48.646608,36.495643 46.670604,35.836975 44.6946,35.589974 Z" />
    </g>
  </g>
</svg>
